PathFileType	4	(X/Y/Z)	S1_nor_slow_right.trc
DataRate	CameraRate	NumFrames	NumMarkers	Units	OrigDataRate	OrigDataStartFrame	OrigNumFrames
250.00	250.00	10	18	mm	250.00	3710	9891
Frame#	Time	c7	r_should	l_should	clavicle	r_upa	r_elb_l	r_elb_m	r_low	r_wri_l	r_wri_m	r_met	l_upa	l_elb_l	l_elb_m	l_low	l_wri_l	l_wri_m	l_met
	X1	Y1	Z1	X2	Y2	Z2	X3	Y3	Z3	X4	Y4	Z4	X5	Y5	Z5	X6	Y6	Z6	X7	Y7	Z7	X8	Y8	Z8	X9	Y9	Z9	X10	Y10	Z10	X11	Y11	Z11	X12	Y12	Z12	X13	Y13	Z13	X14	Y14	Z14	X15	Y15	Z15	X16	Y16	Z16	X17	Y17	Z17	X18	Y18	Z18
3710	14.83600	879.40771	1422.84851	98.89452	943.53046	1338.42395	268.45547	914.74182	1370.36389	-98.35438	1015.38373	1303.76892	73.12049	980.20557	1135.14685	303.77042	995.59912	1088.30945	305.39050	998.62756	1030.27686	206.14233	1089.57507	1114.12305	252.33894	1096.50476	1222.92358	267.24127	1113.57043	1204.63513	196.53204	1151.62842	1286.84607	278.57520	906.48993	1150.55298	-146.36052	910.39691	1064.69849	-162.26738	847.75818	1039.97656	-81.11743	855.63446	925.91241	-176.16960	925.65009	830.51300	-161.65634	854.37390	825.67181	-176.64859	937.94781	755.40039	-185.97757
3711	14.84000	879.33936	1422.84070	98.80154	943.35248	1338.44312	268.41962	914.81128	1370.32971	-98.41384	1015.35724	1303.77612	73.14447	980.01685	1135.18420	303.83548	995.43365	1088.37952	305.51370	998.51147	1030.27698	206.33714	1089.46094	1114.10120	252.48894	1096.45959	1222.90186	267.33929	1113.56396	1204.53674	196.64946	1151.63123	1286.79407	278.65170	906.66089	1150.50781	-146.40471	910.58185	1064.66028	-162.30298	847.91913	1039.92114	-81.18845	855.83331	925.86316	-176.23257	925.83618	830.46899	-161.71011	854.57050	825.62445	-176.71019	938.17078	755.36469	-186.04936
3712	14.84400	879.26770	1422.82458	98.71766	943.17267	1338.46118	268.38412	914.88379	1370.29700	-98.47017	1015.33008	1303.78601	73.17278	979.82458	1135.22363	303.90759	995.26477	1088.44385	305.64182	998.36908	1030.26489	206.57582	1089.35583	1114.07678	252.63301	1096.43567	1222.86890	267.43692	1113.56641	1204.43091	196.77017	1151.68713	1286.59985	278.67810	906.83173	1150.46094	-146.44400	910.76770	1064.62073	-162.33284	848.07068	1039.86621	-81.25146	856.02441	925.81763	-176.28964	926.01855	830.42285	-161.75729	854.76733	825.56927	-176.76878	938.38586	755.32422	-186.12140
3713	14.84800	879.19080	1422.80396	98.63740	942.98682	1338.48132	268.35150	914.95770	1370.26697	-98.52493	1015.29932	1303.80505	73.19756	979.63623	1135.26538	303.98343	995.08893	1088.50623	305.76102	998.19531	1030.23779	206.74377	1089.25549	1114.04749	252.77057	1096.42273	1222.82434	267.53888	1113.57947	1204.31506	196.88719	1151.77527	1286.36182	278.69882	906.99481	1150.41833	-146.47511	910.94836	1064.58215	-162.35950	848.21887	1039.82385	-81.32219	856.21545	925.77148	-176.34633	926.20276	830.37842	-161.79948	854.96759	825.51837	-176.81657	938.58258	755.28528	-186.17926
3714	14.85200	879.11200	1422.79260	98.56303	942.79913	1338.50562	268.32056	915.02960	1370.23376	-98.58202	1015.26691	1303.82019	73.22696	979.43317	1135.29883	304.05777	994.92303	1088.56299	305.88187	998.02515	1030.22827	206.89174	1089.16589	1114.01062	252.90393	1096.42505	1222.77002	267.63696	1113.60608	1204.19043	197.01019	1151.81189	1286.34204	278.85291	907.15643	1150.38098	-146.50444	911.12793	1064.54736	-162.38766	848.36249	1039.77869	-81.39474	856.40808	925.72327	-176.39998	926.38678	830.33197	-161.83286	855.16345	825.46173	-176.85873	938.76599	755.24609	-186.22420
3715	14.85600	879.02911	1422.78162	98.48647	942.60590	1338.52942	268.28580	915.10034	1370.21094	-98.64082	1015.23230	1303.83350	73.25243	979.22131	1135.32324	304.13031	994.75696	1088.61523	305.99316	997.82239	1030.19202	207.04247	1089.08716	1113.96399	253.04207	1096.43530	1222.70898	267.73227	1113.64246	1204.05688	197.14262	1151.92236	1286.13379	278.92844	907.32019	1150.34167	-146.52536	911.31415	1064.52026	-162.40663	848.50909	1039.73083	-81.44075	856.59705	925.68683	-176.45174	926.57294	830.28790	-161.86702	855.35388	825.41132	-176.90669	938.95612	755.21130	-186.25873
3716	14.86000	878.94977	1422.77209	98.41648	942.40997	1338.55188	268.24866	915.16290	1370.18372	-98.69765	1015.20325	1303.84705	73.28466	979.00677	1135.35645	304.19995	994.58990	1088.66663	306.10382	997.63464	1030.19189	207.20016	1089.00049	1113.90906	253.18661	1096.45593	1222.63928	267.83209	1113.68457	1203.92334	197.26765	1151.95251	1286.19800	279.13321	907.48700	1150.30127	-146.54568	911.49615	1064.49658	-162.41872	848.65143	1039.68909	-81.49294	856.78265	925.65027	-176.50461	926.76019	830.24512	-161.90630	855.54779	825.37341	-176.95557	939.14923	755.18030	-186.28680
3717	14.86400	878.86670	1422.76367	98.34502	942.21002	1338.57300	268.21054	915.22369	1370.15942	-98.75831	1015.16998	1303.86804	73.31705	978.78876	1135.40051	304.28653	994.42694	1088.71460	306.21210	997.47845	1030.19714	207.34943	1088.92053	1113.84326	253.31935	1096.48120	1222.56067	267.93219	1113.73450	1203.78357	197.38626	1152.07874	1285.98596	279.22113	907.65118	1150.26294	-146.56889	911.67700	1064.46301	-162.43312	848.79413	1039.64612	-81.54336	856.96436	925.60992	-176.54953	926.94427	830.20520	-161.94606	855.74152	825.33081	-177.00134	939.33344	755.14722	-186.31400
3718	14.86800	878.77606	1422.75305	98.25540	942.00909	1338.59705	268.16840	915.29028	1370.12976	-98.82408	1015.12909	1303.88818	73.33907	978.55615	1135.44629	304.37140	994.26569	1088.76709	306.31024	997.33362	1030.20117	207.49129	1088.84973	1113.77698	253.43829	1096.14893	1222.52917	268.17694	1113.78674	1203.63477	197.49936	1152.28625	1285.58203	279.22180	907.80896	1150.23083	-146.59787	911.85486	1064.42981	-162.44981	848.94232	1039.60852	-81.60008	857.14673	925.57513	-176.59435	927.12531	830.16486	-161.99159	855.93066	825.29382	-177.03400	939.52905	755.11298	-186.34642
3719	14.87200	878.68640	1422.74097	98.16071	941.81659	1338.62280	268.13654	915.34698	1370.10364	-98.89001	1015.08905	1303.89575	73.36601	978.31476	1135.49231	304.44562	994.11334	1088.82397	306.40701	997.16364	1030.18188	207.64232	1088.80835	1113.86890	253.35184	1095.35986	1222.56299	268.60959	1113.84326	1203.48083	197.61079	1152.42542	1285.46216	279.34818	907.95947	1150.19482	-146.62967	912.03918	1064.39014	-162.46242	849.08691	1039.56653	-81.65472	857.33362	925.53485	-176.63937	927.31128	830.12292	-162.03893	856.12238	825.25262	-177.05998	939.73016	755.06543	-186.37175
